<?xml version="1.0" ?><svg id="Layer_1" style="enable-background:new 0 0 128 128;" version="1.1" viewBox="0 0 128 128" xml:space="preserve" xmlns="http://www.w3.org/2000/svg" xmlns:xlink="http://www.w3.org/1999/xlink"><style type="text/css">
	.st0{fill:#191919;}
	.st1{fill:#5F5F5F;}
	.st2{fill:#D7E7F1;}
	.st3{fill:#DB2626;}
	.st4{fill:#FFFFFF;}
	.st5{fill:#BF1313;}
	.st6{fill:#330C03;}
	.st7{fill:#C64309;}
	.st8{fill:#912200;}
	.st9{fill:#1D1D26;}
	.st10{fill:#FD01FD;}
	.st11{fill:#9900CC;}
	.st12{fill:#9494F5;}
	.st13{fill:#E25F3B;}
	.st14{fill:#CC4627;}
	.st15{fill:#69D240;}
	.st16{fill:#565656;}
	.st17{fill:#F2D313;}
	.st18{fill:#D7E6F0;}
	.st19{fill:#666666;}
	.st20{fill:#7B7B7B;}
	.st21{fill:#262C3A;}
	.st22{fill:#A46637;}
	.st23{fill:#7F340A;}
	.st24{fill:#62C60A;}
	.st25{fill:#54A307;}
	.st26{fill:#E01931;}
</style><g><g><path class="st6" d="M28.4,122.7c-0.3,0-0.6-0.1-0.7-0.3c-0.4-0.4-0.3-1,0.1-1.4l14.5-12.9l-5.8-25.4c-0.1-0.5,0.2-1,0.7-1.2    l17.4-5.2c0.5-0.2,1.1,0.1,1.2,0.7c0.2,0.5-0.1,1.1-0.7,1.2l-16.5,4.9l5.7,25.1c0.1,0.4,0,0.7-0.3,1l-15,13.3    C28.9,122.6,28.6,122.7,28.4,122.7z"/></g><g><path class="st6" d="M5.9,69.2c-0.5,0-1-0.4-1-0.9c0-0.6,0.4-1,0.9-1.1l26.6-1.5l8.6-8.6c0.3-0.3,0.7-0.4,1.1-0.2l15.2,5.6    c0.5,0.2,0.8,0.8,0.6,1.3c-0.2,0.5-0.8,0.8-1.3,0.6L42,59l-8.4,8.4c-0.2,0.2-0.4,0.3-0.7,0.3L5.9,69.2C6,69.2,6,69.2,5.9,69.2z"/></g><g><path class="st6" d="M57,55.7c-0.2,0-0.3,0-0.5-0.1l-11-6.4c-0.2-0.1-0.4-0.3-0.4-0.5l-3.3-9.4l-17.2-5.5    c-0.5-0.2-0.8-0.7-0.6-1.3c0.2-0.5,0.7-0.8,1.3-0.6l17.7,5.6c0.3,0.1,0.5,0.3,0.6,0.6l3.3,9.5l10.7,6.2c0.5,0.3,0.6,0.9,0.4,1.4    C57.7,55.5,57.3,55.7,57,55.7z"/></g><g><path class="st6" d="M59.2,34.1c-0.3,0-0.5-0.1-0.7-0.3L47.7,22.9c-0.1-0.1-0.2-0.3-0.2-0.4L42.6,6.6c-0.2-0.5,0.1-1.1,0.7-1.3    c0.5-0.2,1.1,0.1,1.3,0.7l4.8,15.6l10.6,10.8c0.4,0.4,0.4,1,0,1.4C59.7,34,59.4,34.1,59.2,34.1z"/></g></g><g><path class="st6" d="M99.4,122.7c-0.2,0-0.5-0.1-0.7-0.3l-15-13.3c-0.3-0.2-0.4-0.6-0.3-1l5.7-25.1l-16.5-4.9   c-0.5-0.2-0.8-0.7-0.7-1.2c0.2-0.5,0.7-0.8,1.2-0.7l17.4,5.2c0.5,0.1,0.8,0.7,0.7,1.2l-5.8,25.4l14.5,12.9c0.4,0.4,0.5,1,0.1,1.4   C99.9,122.6,99.7,122.7,99.4,122.7z"/></g><g><path class="st6" d="M121.9,69.2C121.8,69.2,121.8,69.2,121.9,69.2l-27.1-1.5c-0.2,0-0.5-0.1-0.7-0.3L85.8,59l-14.6,5.4   c-0.5,0.2-1.1-0.1-1.3-0.6c-0.2-0.5,0.1-1.1,0.6-1.3l15.2-5.6c0.4-0.1,0.8,0,1.1,0.2l8.6,8.6l26.6,1.5c0.6,0,1,0.5,0.9,1.1   C122.8,68.8,122.4,69.2,121.9,69.2z"/></g><g><path class="st6" d="M70.8,55.7c-0.3,0-0.7-0.2-0.9-0.5c-0.3-0.5-0.1-1.1,0.4-1.4L81,47.6l3.3-9.5c0.1-0.3,0.3-0.5,0.6-0.6   l17.7-5.6c0.5-0.2,1.1,0.1,1.3,0.6c0.2,0.5-0.1,1.1-0.6,1.3l-17.2,5.5l-3.3,9.4c-0.1,0.2-0.2,0.4-0.4,0.5l-11,6.4   C71.2,55.6,71,55.7,70.8,55.7z"/></g><g><path class="st6" d="M68.6,34.1c-0.3,0-0.5-0.1-0.7-0.3c-0.4-0.4-0.4-1,0-1.4l10.6-10.8L83.3,6c0.2-0.5,0.7-0.8,1.3-0.7   c0.5,0.2,0.8,0.7,0.7,1.3l-4.9,15.8c0,0.2-0.1,0.3-0.2,0.4L69.3,33.8C69.1,34,68.9,34.1,68.6,34.1z"/></g><circle class="st13" cx="63.9" cy="85.3" r="12.7"/><path class="st13" d="M71.4,60.9c0,6.3-3.4,11.4-7.5,11.4c-4.2,0-7.5-5.1-7.5-11.4c0-6.3,3.4-11.4,7.5-11.4  C68,49.4,71.4,54.6,71.4,60.9z"/><path class="st13" d="M72.4,40.5c0,5.4-3.2,8.6-8.6,8.6c-5.4,0-8.6-3.2-8.6-8.6c0-5.4,8.6-10.9,8.6-10.9S72.4,35.1,72.4,40.5z"/><g><path class="st14" d="M51.2,86.1c0.1,0,0.2-0.1,0.3-0.1h24.3c0.2,0,0.4,0.4,0.6,0.5l0,0.2l-0.3,1.5c-0.1,0-0.2-0.2-0.3-0.2H51.6   L51.2,86.1z"/></g></svg>